<svg width="19" height="25" xmlns="http://www.w3.org/2000/svg" xmlns:xlink="http://www.w3.org/1999/xlink" xmlns:svgjs="http://svgjs.com/svgjs" viewBox="324 843 19 25"><svg width="10" height="11" xmlns="http://www.w3.org/2000/svg" xmlns:xlink="http://www.w3.org/1999/xlink" xmlns:svgjs="http://svgjs.com/svgjs" viewBox="0 0.235 10 10.53" fill="#010001" stroke-miterlimit="100" stroke="#000" stroke-width=".5" x="328" y="843"><svg xmlns="http://www.w3.org/2000/svg" xmlns:xlink="http://www.w3.org/1999/xlink" width="10" height="11" viewBox="0.296 0 9.698 10.212"><path paint-order="stroke fill markers" fill-rule="evenodd" d="M5.145 0A4.856 4.856 0 0 0 .296 4.85v4.804a.559.559 0 0 0 1.117 0V4.849a3.732 3.732 0 0 1 7.464 0v4.805a.559.559 0 1 0 1.117 0V4.849A4.86 4.86 0 0 0 5.145 0z"/></svg></svg><svg width="19" height="19" xmlns="http://www.w3.org/2000/svg" xmlns:xlink="http://www.w3.org/1999/xlink" xmlns:svgjs="http://svgjs.com/svgjs" viewBox="0.162 0 18.675 19" fill="#010001" stroke-miterlimit="100" stroke="#000" stroke-width=".5" x="324" y="849"><svg xmlns="http://www.w3.org/2000/svg" width="19" height="19" viewBox="0 0.268 18 18.313"><path paint-order="stroke fill markers" fill-rule="evenodd" d="M17.441.268H.56A.56.56 0 0 0 0 .827v14.96a2.794 2.794 0 0 0 2.793 2.794h12.414A2.794 2.794 0 0 0 18 15.788V.827a.556.556 0 0 0-.559-.559zm-.558 15.52a1.68 1.68 0 0 1-1.676 1.676H2.793a1.68 1.68 0 0 1-1.676-1.676V1.385h15.766v14.403z"/></svg></svg></svg>