<svg width="28" height="13" xmlns="http://www.w3.org/2000/svg" xmlns:xlink="http://www.w3.org/1999/xlink" xmlns:svgjs="http://svgjs.com/svgjs" viewBox="370 19 28 13"><svg width="26" height="13" xmlns="http://www.w3.org/2000/svg" xmlns:xlink="http://www.w3.org/1999/xlink" xmlns:svgjs="http://svgjs.com/svgjs" viewBox="0.382 0 25.235 13" fill="none" stroke-miterlimit="100" stroke="#000" opacity=".349" x="370" y="19"><svg xmlns="http://www.w3.org/2000/svg" xmlns:xlink="http://www.w3.org/1999/xlink" width="26" height="13" viewBox="0.944 0.136 24.288 12.512"><path paint-order="stroke fill markers" fill-rule="evenodd" d="M3.61.136h18.955a2.667 2.667 0 0 1 2.667 2.667V9.98a2.667 2.667 0 0 1-2.667 2.667H3.611A2.667 2.667 0 0 1 .944 9.981V2.803A2.667 2.667 0 0 1 3.61.136z"/></svg></svg><svg width="2" height="5" xmlns="http://www.w3.org/2000/svg" xmlns:xlink="http://www.w3.org/1999/xlink" xmlns:svgjs="http://svgjs.com/svgjs" viewBox="0.17 0 1.66 5" opacity=".4" x="396" y="23"><svg xmlns="http://www.w3.org/2000/svg" xmlns:xlink="http://www.w3.org/1999/xlink" width="2" height="5" viewBox="0.336 0.184 1.466 4.416"><path paint-order="stroke fill markers" fill-rule="evenodd" d="M.336.184V4.6a2.396 2.396 0 0 0 0-4.416z"/></svg></svg><svg width="21" height="9" xmlns="http://www.w3.org/2000/svg" xmlns:xlink="http://www.w3.org/1999/xlink" xmlns:svgjs="http://svgjs.com/svgjs" viewBox="0 0.222 21 8.556" x="373" y="21"><svg xmlns="http://www.w3.org/2000/svg" width="21" height="9" viewBox="0.152 0.344 19.872 8.096"><path paint-order="stroke fill markers" fill-rule="evenodd" d="M1.485.344h17.206c.736 0 1.333.597 1.333 1.333v5.43c0 .736-.597 1.333-1.333 1.333H1.485A1.333 1.333 0 0 1 .152 7.107v-5.43C.152.941.749.344 1.485.344z"/></svg></svg></svg>