<svg width="19" height="13" xmlns="http://www.w3.org/2000/svg" xmlns:xlink="http://www.w3.org/1999/xlink" xmlns:svgjs="http://svgjs.com/svgjs" viewBox="0 0.539 19 11.922"><svg xmlns="http://www.w3.org/2000/svg" width="19" height="13" viewBox="0.208 0.504 18.768 11.776"><path paint-order="stroke fill markers" fill-rule="evenodd" d="M16.768 12.28c-.61 0-1.104-.495-1.104-1.104V1.608c0-.61.494-1.104 1.104-1.104h1.104c.61 0 1.104.494 1.104 1.104v9.568c0 .61-.495 1.104-1.104 1.104h-1.104zm-5.153 0c-.609 0-1.103-.495-1.103-1.104V4.184c0-.61.494-1.104 1.103-1.104h1.105c.61 0 1.104.494 1.104 1.104v6.992c0 .61-.495 1.104-1.104 1.104h-1.105zm-5.151 0c-.61 0-1.104-.495-1.104-1.104V6.76c0-.61.495-1.104 1.104-1.104h1.104c.61 0 1.104.495 1.104 1.104v4.416c0 .61-.494 1.104-1.104 1.104H6.464zm-5.152 0c-.61 0-1.104-.495-1.104-1.104V8.968c0-.61.494-1.104 1.104-1.104h1.104c.61 0 1.104.494 1.104 1.104v2.208c0 .61-.494 1.104-1.104 1.104H1.312z"/></svg></svg>