<svg width="18" height="13" xmlns="http://www.w3.org/2000/svg" xmlns:xlink="http://www.w3.org/1999/xlink" xmlns:svgjs="http://svgjs.com/svgjs" viewBox="0 0.038 18 12.924"><svg xmlns="http://www.w3.org/2000/svg" width="18" height="13" viewBox="0.526 0.133 16.86 12.106"><path paint-order="stroke fill markers" fill-rule="evenodd" d="M8.712 12.137L6.506 9.91a.348.348 0 0 1 .011-.504 3.776 3.776 0 0 1 4.879 0 .348.348 0 0 1 .011.504L9.2 12.137a.342.342 0 0 1-.489 0zm3.881-3.897a5.418 5.418 0 0 0-7.27 0 .344.344 0 0 1-.479-.007L3.57 6.945a.354.354 0 0 1 .004-.507 7.903 7.903 0 0 1 10.767 0 .357.357 0 0 1 .006.507l-1.275 1.288a.342.342 0 0 1-.479.007zm2.936-2.967a9.539 9.539 0 0 0-13.145 0 .34.34 0 0 1-.479-.004L.629 3.981a.355.355 0 0 1 .003-.504c4.653-4.459 11.995-4.459 16.649 0a.357.357 0 0 1 .002.504L16.007 5.27a.339.339 0 0 1-.478.004z"/></svg></svg>